<svg xmlns="http://www.w3.org/2000/svg" width="414" height="896" viewBox="0 0 414 896">
  <g fill="none" fill-rule="evenodd">
    <rect width="414" height="896" fill="#FFF"/>
    <path fill="#17BEBB" d="M88,157.166407 C92.5247556,152.220611 102.851053,144.931667 129.798813,132.358576 C176.007455,110.798881 182.807954,120.723941 221.788398,85.5863901 C260.768842,50.4488391 286.202971,55.5323038 339.45845,22.9800486 C383.479309,-3.92757225 383.235016,11.977499 414.437909,-2.17603713e-13 L414.437909,157.166407 L88,157.166407 Z" transform="matrix(1 0 0 -1 0 157.166)"/>
    <path fill="#EDB88B" d="M4.84945417e-13,896.166407 C4.52475559,891.220611 14.8510526,883.931667 41.7988127,871.358576 C88.0074555,849.798881 94.8079544,859.723941 133.788398,824.58639 C172.768842,789.448839 198.202971,794.532304 251.45845,761.980049 C295.479309,735.072428 295.235016,750.977499 326.437909,739 L326.437909,896.166407 L5.40012479e-13,896.166407 Z" transform="matrix(-1 0 0 1 326.438 0)"/>
  </g>
</svg>
